<svg id="Layer_1" data-name="Layer 1" xmlns="http://www.w3.org/2000/svg" xmlns:xlink="http://www.w3.org/1999/xlink" viewBox="0 0 398.1 62.1"><defs><style>.cls-1{fill:none;}.cls-2{isolation:isolate;}.cls-3{fill:#fff;}.cls-4{clip-path:url(#clip-path);}.cls-5{fill:#ab363a;}</style><clipPath id="clip-path"><circle class="cls-1" cx="31.1" cy="31.1" r="31.1"/></clipPath></defs><title>DWB logo 2</title><g class="cls-2"><g class="cls-2"><path class="cls-3" d="M99.4,10.4a1.5,1.5,0,0,0-1,.3,1.7,1.7,0,0,0-.8.7c-.3.3-.6.9-1.2,1.7l-3,4.7v3.5a2.5,2.5,0,0,0,.1.9,1.7,1.7,0,0,0,.6.6l1.4.2v1H88.2V23l1.4-.2a1,1,0,0,0,.6-.5,3.1,3.1,0,0,0,.1-1V18l-3.6-6.1h-.2a2.2,2.2,0,0,0-.8-1,2,2,0,0,0-1.1-.3v-1h6.8v1h-.8l-.5.2a.5.5,0,0,0-.2.4.9.9,0,0,0,.1.5l.6,1.1,2.3,3.8L95,13a3.3,3.3,0,0,0,.7-1.6c0-.4-.1-.7-.4-.8a2.2,2.2,0,0,0-1.2-.2v-1h5.3Z"/><path class="cls-3" d="M118.8,20.1a3.2,3.2,0,0,1-.6,2,4.8,4.8,0,0,1-1.6,1.2,6.7,6.7,0,0,1-1.9.5L113,24h-7.3V23l1.3-.2a.9.9,0,0,0,.6-.6,2,2,0,0,0,.2-.9V12.1a2.3,2.3,0,0,0-.4-1.4,3.2,3.2,0,0,0-1.7-.4v-1h6.9l2.4.2a5.1,5.1,0,0,1,2.2,1.1,2.9,2.9,0,0,1,1,2.3,2.8,2.8,0,0,1-.8,2,6.8,6.8,0,0,1-2.7,1.4,7.1,7.1,0,0,1,2.2.7,3.8,3.8,0,0,1,1.4,1.4A3.5,3.5,0,0,1,118.8,20.1Zm-3.7-7.2a2,2,0,0,0-.4-1.3,1.8,1.8,0,0,0-1-.9,4.7,4.7,0,0,0-1.7-.3h-1.2v5.2h.9a3.8,3.8,0,0,0,2.6-.7A2.8,2.8,0,0,0,115.1,12.9Zm.4,7a3.4,3.4,0,0,0-.8-2.3,2.9,2.9,0,0,0-2.1-.8h-1.8v3.8c0,.5.1.9.1,1.2a1.3,1.3,0,0,0,.5.7,2.1,2.1,0,0,0,1.2.3,3.5,3.5,0,0,0,2-.7A2.7,2.7,0,0,0,115.5,19.9Z"/><path class="cls-3" d="M131,16.2l-.7.2a1.2,1.2,0,0,0-.5.5c-.1.3-.4.7-.7,1.5l-3.2,6.5-1.4,2.9a5.3,5.3,0,0,1-.9,1.1,1.6,1.6,0,0,1-1.2.4,1.6,1.6,0,0,1-.9-.3.9.9,0,0,1-.3-.7,1.1,1.1,0,0,1,.4-1l1.2-.5a2.4,2.4,0,0,0,1.4-1,5.1,5.1,0,0,0,.9-1.6L121,17a2.5,2.5,0,0,0-.5-.7h-.7v-1H125v1h-.3c-.5,0-.7.1-.7.3a1.7,1.7,0,0,0,.3.7l2.2,4,1.7-3.4a4.9,4.9,0,0,0,.4-1,.5.5,0,0,0-.4-.5h-.7v-1H131Z"/><path class="cls-3" d="M148.9,16.2h-.8l-.4.4-.5,1L144,24.3h-.9l-3-5.8-2.8,5.8h-1l-3.1-6.6a4.6,4.6,0,0,0-.7-1.3c-.2-.2-.5-.2-1-.2v-1H137v1h-.3c-.5,0-.8.2-.8.6a2.5,2.5,0,0,0,.2.7l1.7,3.6,2.9-5.8h.8l2.9,5.8,1.6-3.3a4.3,4.3,0,0,0,.3-1,.5.5,0,0,0-.3-.5h-.9v-1h3.8Z"/><path class="cls-3" d="M161,15.8a.7.7,0,0,1-.2.6l-.5.2a.9.9,0,0,1-.6-.3h-.2c-.1-.1-.2-.1-.2-.2h-.2l-.5.2a4.1,4.1,0,0,1,.5.9,1.5,1.5,0,0,1,.2,1,2.4,2.4,0,0,1-.4,1.5,2.2,2.2,0,0,1-1,.9l-1.3.4-1.7.3c-1.7.2-2.5.5-2.5,1a.5.5,0,0,0,.4.5H157l1.5.4a3.1,3.1,0,0,1,1.3,1,2.6,2.6,0,0,1,.5,1.7,3,3,0,0,1-.5,1.5,3.5,3.5,0,0,1-1.7,1.4,9.5,9.5,0,0,1-3.3.5,11.7,11.7,0,0,1-3.2-.4A1.8,1.8,0,0,1,150,27a1.7,1.7,0,0,1,.3-1,1.3,1.3,0,0,1,.9-.4,1.5,1.5,0,0,1,.8.2,2.4,2.4,0,0,0-.2.8,1.4,1.4,0,0,0,.8,1.2,4.4,4.4,0,0,0,2.5.5,6.2,6.2,0,0,0,2.6-.4c.7-.4,1-.8,1-1.3a.8.8,0,0,0-.4-.8l-1.2-.4h-2.4a12.3,12.3,0,0,1-3.1-.4,1.8,1.8,0,0,1-1.1-1.8,1.9,1.9,0,0,1,.8-1.6,10.2,10.2,0,0,1,2.1-.8c-1.9-.3-2.9-1.2-2.9-2.7a2.7,2.7,0,0,1,.4-1.4,3,3,0,0,1,1.4-1.3,6,6,0,0,1,2.6-.5,4.8,4.8,0,0,1,3.3,1,2.1,2.1,0,0,1,1.7-1,1.1,1.1,0,0,1,.8.3A.9.9,0,0,1,161,15.8ZM156.6,18a2.9,2.9,0,0,0-.4-1.6,1.6,1.6,0,0,0-1.3-.7,1.4,1.4,0,0,0-1.3.7,2.4,2.4,0,0,0-.4,1.5,2.9,2.9,0,0,0,.4,1.6,1.3,1.3,0,0,0,1.3.7,1.8,1.8,0,0,0,1.3-.6A2.4,2.4,0,0,0,156.6,18Z"/><path class="cls-3" d="M171.1,16.5a1.7,1.7,0,0,1-.3,1l-.9.3a1.4,1.4,0,0,1-1.1-.6l-.4-.3-.4-.2c-.5,0-.9.3-1.3,1a3.9,3.9,0,0,0-.4,1.8v1.9c0,.6,0,1,.2,1.2s.6.4,1.2.4h.6v1h-6.7V23h.6c.6,0,.9-.1,1.1-.4a2.9,2.9,0,0,0,.2-1.2V18.3a2.7,2.7,0,0,0-.2-1.1.7.7,0,0,0-.5-.4h-1.2v-1l4.2-.9a18.8,18.8,0,0,1,.3,2.3,4.4,4.4,0,0,1,.8-1.1,3.1,3.1,0,0,1,1.1-.9l1.2-.3a2,2,0,0,1,1.4.5A1.3,1.3,0,0,1,171.1,16.5Z"/><path class="cls-3" d="M183,21.7a3.2,3.2,0,0,1-.3,1.4,1.4,1.4,0,0,1-.9.8,2.8,2.8,0,0,1-1.3.3,2.4,2.4,0,0,1-1.5-.4,1.7,1.7,0,0,1-.7-1,6.1,6.1,0,0,1-3.6,1.4,2.9,2.9,0,0,1-1.9-.6,1.6,1.6,0,0,1-.8-1.4,2.9,2.9,0,0,1,.4-1.4,4.3,4.3,0,0,1,1.2-1.1l1.8-.9,2.7-.8v-.6a1.6,1.6,0,0,0-.4-1.2c-.2-.3-.7-.4-1.3-.4a1.7,1.7,0,0,0-1.2.3,2.8,2.8,0,0,0-.5,1.1,1.1,1.1,0,0,1-.3.8,1.3,1.3,0,0,1-1,.3l-.8-.2a1.1,1.1,0,0,1-.3-.8,2.2,2.2,0,0,1,1.1-1.8,6.8,6.8,0,0,1,3.3-.7,5.3,5.3,0,0,1,3.3.8,2.5,2.5,0,0,1,.8,2.1v3.4c0,.5.1.8.1,1a.5.5,0,0,0,.2.4l.4.2a.5.5,0,0,0,.5-.3,1.4,1.4,0,0,0,.2-.7Zm-4.9.1V19.1a6.1,6.1,0,0,0-2.6,1.3,1.7,1.7,0,0,0-.6,1.2,1.1,1.1,0,0,0,.3.8,1.2,1.2,0,0,0,.9.3,1.7,1.7,0,0,0,1-.3Z"/><path class="cls-3" d="M189.8,14.9v1h-2.9v6.8c.1.2.1.3.2.4h1.5v1h-5.4v-1h1.2v-.2a7.2,7.2,0,0,0,.1-1.9v-5H183v-1h1.6V13.1a2.5,2.5,0,0,0,.1-.8,3.7,3.7,0,0,1,.7-1.6l.7-.8a3.1,3.1,0,0,1,1-.5,5.3,5.3,0,0,1,4.7.1c.8.4,1.2.8,1.2,1.3v.4l-.2.3-.4.2h-.4c-.6,0-1-.3-1.4-1h.1a2.8,2.8,0,0,0-1.7-.9,2.8,2.8,0,0,0-1.2.5,1.2,1.2,0,0,0-.7,1,22,22,0,0,0-.1,3.1v.4Zm-1.1,1v-1h1.8v-.6a8.5,8.5,0,0,1,.4-2.9,4.2,4.2,0,0,1,1.7-1.8,6.1,6.1,0,0,1,2.8-.7,4.6,4.6,0,0,1,2.3.5c.7.4,1.1.8,1.1,1.3a.9.9,0,0,1-.3.7,1.1,1.1,0,0,1-.8.3c-.5,0-.9-.4-1.3-1h0a1.7,1.7,0,0,0-1.4-.8,2,2,0,0,0-1.4.6,2.1,2.1,0,0,0-.7,1.4,3.7,3.7,0,0,0-.1,1.1,6.6,6.6,0,0,0-.1,1.4v.5h2.4a11.9,11.9,0,0,0,3.1-.3h.7v8.2l.2.3h1.2v1h-5.2v-1h1.3l.2-.3v-6a.7.7,0,0,0-.1-.5c0-.1-.1-.2-.1-.3h-3.7v6.3a3.5,3.5,0,0,0,.1.6h0V23a.1.1,0,0,1,.1.1h1.3v1H189v-1h1.3c0-.1.1-.1.1-.2s.1-.8.1-1.9v-5Z"/><path class="cls-3" d="M212.1,21.7a3.2,3.2,0,0,1-.3,1.4,1.4,1.4,0,0,1-.9.8,2.8,2.8,0,0,1-1.3.3,2.4,2.4,0,0,1-1.5-.4,1.7,1.7,0,0,1-.7-1,6.1,6.1,0,0,1-3.6,1.4,2.9,2.9,0,0,1-1.9-.6,1.6,1.6,0,0,1-.8-1.4,2.9,2.9,0,0,1,.4-1.4,4.3,4.3,0,0,1,1.2-1.1l1.8-.9,2.7-.8v-.6a1.6,1.6,0,0,0-.4-1.2c-.2-.3-.7-.4-1.3-.4a2.1,2.1,0,0,0-1.2.3,2.8,2.8,0,0,0-.5,1.1,1.1,1.1,0,0,1-.3.8c-.1.2-.5.3-1,.3l-.7-.2a.9.9,0,0,1-.4-.8,2.2,2.2,0,0,1,1.1-1.8,6.8,6.8,0,0,1,3.3-.7,5.3,5.3,0,0,1,3.3.8,2.6,2.6,0,0,1,.9,2.1v4.4a.5.5,0,0,0,.2.4l.4.2a.5.5,0,0,0,.5-.3.8.8,0,0,0,.2-.7Zm-4.9.1V19.1a6.1,6.1,0,0,0-2.6,1.3,1.7,1.7,0,0,0-.6,1.2,1.1,1.1,0,0,0,.3.8,1.2,1.2,0,0,0,.9.3,1.7,1.7,0,0,0,1-.3A2.7,2.7,0,0,0,207.2,21.8Z"/><path class="cls-3" d="M225.1,23.8l-4.1.5a2.7,2.7,0,0,1-.2-1.1,5.3,5.3,0,0,1-3.1,1.1,4.6,4.6,0,0,1-2.3-.6,5.8,5.8,0,0,1-1.7-1.8,5.5,5.5,0,0,1-.7-2.5,4.5,4.5,0,0,1,.3-1.6,3.8,3.8,0,0,1,.9-1.5,4.5,4.5,0,0,1,3.5-1.5l1.4.2a1.9,1.9,0,0,1,.9.5l.8.6V12.6a2.2,2.2,0,0,0-.2-1,.4.4,0,0,0-.4-.4l-1.1-.2v-.9l4.4-1V21.2c0,.5.1.8.1,1a1,1,0,0,0,.4.5h1.1Zm-4.3-2V17.5a5.2,5.2,0,0,0-1.1-1,2.5,2.5,0,0,0-1.5-.5,1.9,1.9,0,0,0-1,.3,2.3,2.3,0,0,0-.7.7,5.2,5.2,0,0,0-.5,2.5,4.1,4.1,0,0,0,.7,2.7,1.9,1.9,0,0,0,1.6.9,3.2,3.2,0,0,0,1.4-.3A5.2,5.2,0,0,0,220.8,21.8Z"/><path class="cls-3" d="M238,23.9h-2.8l-1.5.2V22.7a4.2,4.2,0,0,1-3.3,1.6,2.9,2.9,0,0,1-2.1-.6,2.2,2.2,0,0,1-.9-1.3,7.6,7.6,0,0,1-.1-1.5V17.7a2.2,2.2,0,0,0-.1-.9.7.7,0,0,0-.4-.5h-1.1v-1H230v5.9q0,1.8,1.5,1.8a1.8,1.8,0,0,0,1.3-.6,3.1,3.1,0,0,0,.9-1.1V17.7a2.5,2.5,0,0,0-.1-1,.8.8,0,0,0-.4-.4h-1.1v-1h4.4v7.2l.5.4h1Z"/><path class="cls-3" d="M248.2,16.5a1.3,1.3,0,0,1-.4,1l-.9.3a1.4,1.4,0,0,1-1.1-.6l-.3-.3-.4-.2a1.3,1.3,0,0,0-1.3,1,4.1,4.1,0,0,0-.5,1.8v1.9a2.9,2.9,0,0,0,.2,1.2c.2.3.6.4,1.3.4h.5v1h-6.6V23h.5c.6,0,1-.1,1.1-.4s.2-.6.2-1.2V18.3a3.1,3.1,0,0,0-.1-1.1,1,1,0,0,0-.5-.4h-1.2v-1l4.1-.9a18.8,18.8,0,0,1,.3,2.3,4.4,4.4,0,0,1,.8-1.1,4.4,4.4,0,0,1,1.1-.9,2.8,2.8,0,0,1,1.3-.3,2.2,2.2,0,0,1,1.4.5A1.7,1.7,0,0,1,248.2,16.5Z"/><path class="cls-3" d="M268.5,23.8h-1a5.9,5.9,0,0,0-.7-1.6,13.3,13.3,0,0,1-1.9,1.4,6,6,0,0,1-2.9.6,7.4,7.4,0,0,1-3.6-.9,8.7,8.7,0,0,1-2.7-2.7,7.1,7.1,0,0,1-1-3.9,7.5,7.5,0,0,1,.6-2.9,6.1,6.1,0,0,1,1.5-2.4,8.1,8.1,0,0,1,2.4-1.7,7.3,7.3,0,0,1,3-.6,6.2,6.2,0,0,1,4.6,1.8,6.8,6.8,0,0,0,.4-1.3h1l.2,5.3h-1.1a5.9,5.9,0,0,0-2.7-4,4.2,4.2,0,0,0-2.1-.6,3.4,3.4,0,0,0-2.2.7,4.1,4.1,0,0,0-1.6,2,11.8,11.8,0,0,0-.5,3.5,8.2,8.2,0,0,0,.5,3.3,4.8,4.8,0,0,0,1.1,2,5.5,5.5,0,0,0,1.4.9,3.1,3.1,0,0,0,1.3.3,4,4,0,0,0,2.3-.8,5.8,5.8,0,0,0,1.8-1.7,12.8,12.8,0,0,0,.9-2.2h1Z"/><path class="cls-3" d="M281.3,16.2l-.7.2c-.2.1-.3.3-.5.5s-.4.7-.7,1.5l-3.2,6.5c-.7,1.4-1.1,2.4-1.4,2.9a2.4,2.4,0,0,1-.9,1.1,1.6,1.6,0,0,1-1.2.4,1.1,1.1,0,0,1-.8-.3.8.8,0,0,1-.4-.7,1.1,1.1,0,0,1,.5-1l1.1-.5a2.7,2.7,0,0,0,1.5-1,8,8,0,0,0,.8-1.6l-4-7.2a1.4,1.4,0,0,0-.6-.7h-.6v-1h5.2v1H275c-.4,0-.7.1-.7.3a1.7,1.7,0,0,0,.3.7l2.3,4,1.6-3.4a2.2,2.2,0,0,0,.4-1,.5.5,0,0,0-.3-.5h-.8v-1h3.5Z"/><path class="cls-3" d="M302.3,24h-5.9V23a2.2,2.2,0,0,0,1-.2,1,1,0,0,0,.4-.5c0-.2.1-.5.1-.9V18.1a2.2,2.2,0,0,0-.4-1.3c-.2-.4-.6-.6-1.4-.6a3.3,3.3,0,0,0-1.4.4,3.1,3.1,0,0,0-.9,1.1,4.1,4.1,0,0,0-.3,1.6v2.1a2.8,2.8,0,0,0,.1,1c0,.2.2.3.4.4l1.1.2v1h-5.9V23l1.1-.2a.5.5,0,0,0,.3-.5,2.2,2.2,0,0,0,.1-.9V18c0-.7-.2-1.2-.6-1.4a1.7,1.7,0,0,0-1.1-.4,2.2,2.2,0,0,0-1.3.4,2.1,2.1,0,0,0-1,.8,1.3,1.3,0,0,0-.3.8,2.5,2.5,0,0,0-.1.9v2.3c0,.4.1.8.1,1l.4.4,1.1.2v1H282V23l1.1-.2.4-.4c0-.2.1-.6.1-1V17.7c0-.6-.5-1-1.3-1h-.6v-1l4.5-.9a7.1,7.1,0,0,1,.1,1.6,8.3,8.3,0,0,1,1.6-1.2,6.5,6.5,0,0,1,2-.4,4.5,4.5,0,0,1,2,.4,3.6,3.6,0,0,1,1.5,1.5,4,4,0,0,1,1.8-1.5,4.3,4.3,0,0,1,1.9-.4,4,4,0,0,1,2.6.8,3.3,3.3,0,0,1,.9,2.5v3.3c0,.4.1.7.1.9a.5.5,0,0,0,.3.5l.9.2h.4Z"/><path class="cls-3" d="M312.1,16.5a1.7,1.7,0,0,1-.3,1,1.6,1.6,0,0,1-.9.3,1.4,1.4,0,0,1-1.1-.6l-.4-.3-.4-.2a1.4,1.4,0,0,0-1.3,1,3.9,3.9,0,0,0-.4,1.8v1.9c0,.6,0,1,.2,1.2s.6.4,1.2.4h.6v1h-6.7V23h.6c.6,0,.9-.1,1.1-.4a2.9,2.9,0,0,0,.2-1.2V18.3a2.7,2.7,0,0,0-.2-1.1.7.7,0,0,0-.5-.4h-1.2v-1l4.2-.9a18.8,18.8,0,0,1,.3,2.3,4.4,4.4,0,0,1,.8-1.1,3.1,3.1,0,0,1,1.1-.9,2.7,2.7,0,0,1,1.2-.3,2,2,0,0,1,1.4.5A1.3,1.3,0,0,1,312.1,16.5Z"/><path class="cls-3" d="M322.5,19.2h-6.6a3.4,3.4,0,0,0,.1.9,3.9,3.9,0,0,0,.3,1.4,1.9,1.9,0,0,0,.9,1.1,2.1,2.1,0,0,0,1.6.5l1.4-.3a2.9,2.9,0,0,0,1.4-1.1l.8.6a4.4,4.4,0,0,1-4,2,8.5,8.5,0,0,1-2.3-.3,9.5,9.5,0,0,1-1.7-1,5.3,5.3,0,0,1-1.1-1.5,5.8,5.8,0,0,1-.3-1.9,5.3,5.3,0,0,1,.6-2.4,4.2,4.2,0,0,1,1.8-1.7,5,5,0,0,1,2.7-.7,4.5,4.5,0,0,1,2.4.6,4,4,0,0,1,1.5,1.7A4.1,4.1,0,0,1,322.5,19.2Zm-2.6-1c0-1.6-.7-2.4-2-2.4a1.5,1.5,0,0,0-1.4.7,3.8,3.8,0,0,0-.6,1.7Z"/><path class="cls-3" d="M329.7,24h-5.9V23h.3l.9-.2a1,1,0,0,0,.4-.5v-5c-.1-.2-.2-.4-.4-.4l-1.2-.2v-1l4.4-.9v6.6a2.9,2.9,0,0,0,.2,1.2c.2.3.6.4,1.3.4Zm-1.3-13.4a1.5,1.5,0,0,1-.4,1.1,1.6,1.6,0,1,1-2.2-2.2,1.4,1.4,0,0,1,1.1-.5,1.6,1.6,0,0,1,1.1.5A1.5,1.5,0,0,1,328.4,10.6Z"/><path class="cls-3" d="M342.1,15.8a1.4,1.4,0,0,1-.2.6l-.5.2a1.1,1.1,0,0,1-.7-.3h-.2l-.2-.2h-.2l-.5.2a4.7,4.7,0,0,1,.6.9,2.5,2.5,0,0,1,.2,1,3.3,3.3,0,0,1-.4,1.5,2.8,2.8,0,0,1-1,.9l-1.3.4-1.7.3c-1.7.2-2.6.5-2.6,1a.7.7,0,0,0,.4.5h4.3l1.4.4a2.6,2.6,0,0,1,1.3,1,2.2,2.2,0,0,1,.5,1.7,2.8,2.8,0,0,1-.4,1.5,3.5,3.5,0,0,1-1.7,1.4,9.5,9.5,0,0,1-3.3.5,11.2,11.2,0,0,1-3.2-.4,1.8,1.8,0,0,1-1.6-1.9,1.7,1.7,0,0,1,.3-1,1.3,1.3,0,0,1,.9-.4l.8.2a1.2,1.2,0,0,0-.2.8,1.2,1.2,0,0,0,.8,1.2,4.3,4.3,0,0,0,2.5.5,6.5,6.5,0,0,0,2.6-.4c.6-.4.9-.8.9-1.3a.8.8,0,0,0-.4-.8,2.3,2.3,0,0,0-1.1-.4h-2.4a11.7,11.7,0,0,1-3.1-.4,1.7,1.7,0,0,1-1.2-1.8,1.8,1.8,0,0,1,.9-1.6,7.6,7.6,0,0,1,2-.8c-1.9-.3-2.8-1.2-2.8-2.7a3.9,3.9,0,0,1,.3-1.4,4.4,4.4,0,0,1,1.4-1.3,6.3,6.3,0,0,1,2.6-.5,4.7,4.7,0,0,1,3.3,1,2.2,2.2,0,0,1,1.7-1,1.2,1.2,0,0,1,.9.3A.9.9,0,0,1,342.1,15.8ZM337.7,18a4.2,4.2,0,0,0-.4-1.6,1.6,1.6,0,0,0-1.3-.7,1.3,1.3,0,0,0-1.3.7,2.4,2.4,0,0,0-.4,1.5,4.1,4.1,0,0,0,.3,1.6,1.6,1.6,0,0,0,2.6.1A2.3,2.3,0,0,0,337.7,18Z"/></g></g><g class="cls-2"><g class="cls-2"><path class="cls-3" d="M100,45.4a8.4,8.4,0,0,1-.5,2.9,8.5,8.5,0,0,1-1.4,2.1,6.8,6.8,0,0,1-1.8,1.3,12.8,12.8,0,0,1-5,.9H84.6v-1a2.8,2.8,0,0,0,1.4-.2,1,1,0,0,0,.6-.5,2.5,2.5,0,0,0,.2-1V40.7a2,2,0,0,0-.4-1.3,2.6,2.6,0,0,0-1.8-.4V38h5.8a13.2,13.2,0,0,1,3,.2,7.7,7.7,0,0,1,2.3.6,4.9,4.9,0,0,1,1.8,1.1,4.7,4.7,0,0,1,1.3,1.5,7.2,7.2,0,0,1,.9,2A7.6,7.6,0,0,1,100,45.4Zm-3.5,0a7.4,7.4,0,0,0-.9-3.8,4.3,4.3,0,0,0-2.3-2.1l-1.4-.4h-2V50.6a1,1,0,0,0,.5.6l1.3.2a3.9,3.9,0,0,0,3.7-1.8A7.3,7.3,0,0,0,96.5,45.4Z"/><path class="cls-3" d="M107.4,52.6h-5.8v-1h.3c.4,0,.7,0,.9-.2s.3-.2.3-.4a3.1,3.1,0,0,0,.1-1V46.9a2.5,2.5,0,0,0-.1-1,.8.8,0,0,0-.4-.4h-1.1v-1l4.4-1V50c0,.6,0,1.1.2,1.3s.5.3,1.2.3Zm-1.2-13.4a1.4,1.4,0,0,1-.5,1.1,1.3,1.3,0,0,1-1.1.5,1.6,1.6,0,0,1-1.1-.5,1.4,1.4,0,0,1-.5-1.1,1.6,1.6,0,0,1,.5-1.1,1.7,1.7,0,0,1,2.2,0A1.6,1.6,0,0,1,106.2,39.2Z"/><path class="cls-3" d="M118.2,50.4A4.5,4.5,0,0,1,114,53a5.8,5.8,0,0,1-2.6-.6,4.9,4.9,0,0,1-1.9-1.6,4,4,0,0,1-.7-2.4,4.1,4.1,0,0,1,.4-1.9,4.2,4.2,0,0,1,1.1-1.6,7.8,7.8,0,0,1,1.8-1.1,7.1,7.1,0,0,1,2.1-.4,6,6,0,0,1,2.7.6,2,2,0,0,1,1.1,1.7,1,1,0,0,1-.4.8,1.1,1.1,0,0,1-.8.3l-.7-.2-.3-.4a4.5,4.5,0,0,0-.2-.8c-.1-.3-.2-.6-.5-.7a1.2,1.2,0,0,0-.9-.3,2.5,2.5,0,0,0-1.7.8c-.5.4-.7,1.3-.7,2.7a5.8,5.8,0,0,0,.3,1.9,2.8,2.8,0,0,0,.9,1.4,2.5,2.5,0,0,0,1.6.6,2.2,2.2,0,0,0,1.7-.6,6.3,6.3,0,0,0,1-1.2Z"/><path class="cls-3" d="M126.5,50.7a4,4,0,0,1-1.3,1.7,2.8,2.8,0,0,1-1.8.6,2.5,2.5,0,0,1-1.9-.6,2.1,2.1,0,0,1-.8-1.1c0-.4-.1-.9-.1-1.4V44.8H119v-1a3.4,3.4,0,0,0,1.8-.4,2.2,2.2,0,0,0,1.1-1,4.2,4.2,0,0,0,.6-1.4h.9v2.8h3v1h-3v5.1a5.3,5.3,0,0,0,.1,1.4.7.7,0,0,0,.6.4,1.5,1.5,0,0,0,.9-.4l.6-1Z"/><path class="cls-3" d="M133.1,52.6h-5.8v-1h.3c.4,0,.7,0,.9-.2s.3-.2.3-.4a3.1,3.1,0,0,0,.1-1V46.9a2.5,2.5,0,0,0-.1-1c0-.2-.2-.3-.4-.4h-1.1v-1l4.4-1V50c0,.6,0,1.1.2,1.3s.5.3,1.2.3Zm-1.2-13.4a1.4,1.4,0,0,1-.5,1.1,1.3,1.3,0,0,1-1.1.5,1.6,1.6,0,0,1-1.1-.5,1.4,1.4,0,0,1-.5-1.1,1.6,1.6,0,0,1,.5-1.1,1.5,1.5,0,0,1,1.1-.4,1.4,1.4,0,0,1,1.1.4A1.6,1.6,0,0,1,131.9,39.2Z"/><path class="cls-3" d="M145.1,48.2a4.3,4.3,0,0,1-.7,2.5,5.2,5.2,0,0,1-1.9,1.7,6,6,0,0,1-2.7.6,5.4,5.4,0,0,1-2.5-.6,4.5,4.5,0,0,1-2.8-4.2,3.9,3.9,0,0,1,1.6-3.5,6.2,6.2,0,0,1,3.8-1.3,6.1,6.1,0,0,1,2.8.7,4.2,4.2,0,0,1,1.8,1.7A4.8,4.8,0,0,1,145.1,48.2Zm-3-.1a6.4,6.4,0,0,0-.4-2.7,2,2,0,0,0-1.9-1,2.6,2.6,0,0,0-1.4.4,1.9,1.9,0,0,0-.7,1.3,6.8,6.8,0,0,0-.2,2.2,6.2,6.2,0,0,0,.4,2.6,1.9,1.9,0,0,0,1.9,1.1,1.8,1.8,0,0,0,1.5-.6A2.3,2.3,0,0,0,142,50,10.9,10.9,0,0,0,142.1,48.1Z"/><path class="cls-3" d="M158.7,52.6h-5.6v-1c.4,0,.7,0,.9-.2a.8.8,0,0,0,.4-.4V46.9a5.4,5.4,0,0,0-.2-1.5,1.3,1.3,0,0,0-1.1-.5,1.9,1.9,0,0,0-1.7.8,3.6,3.6,0,0,0-.6,2v2.4a1.7,1.7,0,0,0,.3,1.2c.1.2.5.3,1,.3v1h-5.6v-1h1c.2-.1.4-.2.4-.5a2.5,2.5,0,0,0,.1-1V46.6a1.9,1.9,0,0,0-.2-1c-.2-.2-.7-.2-1.3-.2v-1l4.1-1a5.3,5.3,0,0,1,.1,1.2v.5a7.5,7.5,0,0,1,1.4-1.2,3.6,3.6,0,0,1,1.9-.5,4.2,4.2,0,0,1,1.6.4,2.3,2.3,0,0,1,1.2,1,2.7,2.7,0,0,1,.4,1.6V50a3.5,3.5,0,0,0,.2,1.3,1.9,1.9,0,0,0,1.3.3Z"/><path class="cls-3" d="M171,50.3a2.9,2.9,0,0,1-.3,1.4,3.8,3.8,0,0,1-.9.9,2.7,2.7,0,0,1-1.3.2,2.4,2.4,0,0,1-1.5-.4,1.7,1.7,0,0,1-.7-1,5.5,5.5,0,0,1-3.6,1.4,2.9,2.9,0,0,1-1.9-.5,1.9,1.9,0,0,1-.8-1.5,3.3,3.3,0,0,1,.4-1.4,4.3,4.3,0,0,1,1.2-1.1,7.5,7.5,0,0,1,1.8-.8l2.7-.8v-.6a2.1,2.1,0,0,0-.4-1.2,1.6,1.6,0,0,0-1.3-.5,1.7,1.7,0,0,0-1.2.4,1.6,1.6,0,0,0-.5,1,3.4,3.4,0,0,1-.3.8,1.3,1.3,0,0,1-1.8.1,1,1,0,0,1-.3-.8,2,2,0,0,1,1.1-1.7,5.7,5.7,0,0,1,3.3-.8,5.3,5.3,0,0,1,3.3.8,3.3,3.3,0,0,1,.8,2.2v3.4c0,.4.1.7.1.9a4.3,4.3,0,0,0,.1.5h.5a.5.5,0,0,0,.5-.3,1.4,1.4,0,0,0,.2-.7Zm-4.9.1V47.8a5.6,5.6,0,0,0-2.6,1.2,1.7,1.7,0,0,0-.6,1.2,1,1,0,0,0,.3.8,1.2,1.2,0,0,0,.9.3l1-.2Z"/><path class="cls-3" d="M180.7,45.1a1.1,1.1,0,0,1-.4,1,1,1,0,0,1-.9.4,1.5,1.5,0,0,1-1.1-.6l-.3-.4h-.4a1.4,1.4,0,0,0-1.3.9,4.1,4.1,0,0,0-.5,1.9V50a2.1,2.1,0,0,0,.3,1.3q.2.3,1.2.3h.5v1h-6.6v-1h.5c.6,0,1-.1,1.1-.3A2.4,2.4,0,0,0,173,50V46.9a2.5,2.5,0,0,0-.1-1,.7.7,0,0,0-.5-.4h-1.2v-1l4.2-1a18.5,18.5,0,0,1,.3,2.4,4.2,4.2,0,0,1,.8-1.2,3.9,3.9,0,0,1,1-.8,3.8,3.8,0,0,1,1.3-.4,2.2,2.2,0,0,1,1.4.5A2.1,2.1,0,0,1,180.7,45.1Z"/><path class="cls-3" d="M193,44.8l-.7.2a.9.9,0,0,0-.4.6,10.9,10.9,0,0,0-.8,1.4L188,53.5a32.1,32.1,0,0,1-1.5,2.9,3.6,3.6,0,0,1-.8,1.2,2.8,2.8,0,0,1-1.2.4,1.2,1.2,0,0,1-1.3-1.1,1.1,1.1,0,0,1,.5-.9l1.1-.5a2.5,2.5,0,0,0,1.5-1.1l.9-1.6-4.1-7.2a2.2,2.2,0,0,0-.6-.7h-.6v-1h5.2v1h-.3c-.5,0-.8.1-.8.3a2,2,0,0,0,.3.8l2.3,4,1.7-3.4a4.3,4.3,0,0,0,.3-1,.5.5,0,0,0-.3-.5l-.7-.2v-1H193Z"/><path class="cls-3" d="M210.3,48.2a4.6,4.6,0,0,1-2.6,4.2,6,6,0,0,1-2.7.6,6.2,6.2,0,0,1-2.6-.6,4.2,4.2,0,0,1-1.9-1.6,4.5,4.5,0,0,1-.8-2.6,3.9,3.9,0,0,1,1.6-3.5,6.2,6.2,0,0,1,3.8-1.3,6.1,6.1,0,0,1,2.8.7,4.2,4.2,0,0,1,1.8,1.7A4.8,4.8,0,0,1,210.3,48.2Zm-3-.1a5,5,0,0,0-.5-2.7,1.7,1.7,0,0,0-1.8-1,2.6,2.6,0,0,0-1.4.4,1.9,1.9,0,0,0-.7,1.3,6.8,6.8,0,0,0-.2,2.2,6.2,6.2,0,0,0,.4,2.6A1.8,1.8,0,0,0,205,52a1.8,1.8,0,0,0,1.5-.6,2.3,2.3,0,0,0,.7-1.4A10.9,10.9,0,0,0,207.3,48.1Z"/><path class="cls-3" d="M221.1,39.9a1.8,1.8,0,0,1-.4,1,1.7,1.7,0,0,1-1,.3,1,1,0,0,1-.9-.4,3.3,3.3,0,0,1-.5-1.2,1.1,1.1,0,0,0-1-.8c-.5,0-.8.1-.9.5a6.5,6.5,0,0,0-.2,1.7v2.8h2.2v1h-2.2V50a2.5,2.5,0,0,0,.1,1c0,.2.1.3.3.5h1.3v1h-6.3v-1H213a.5.5,0,0,0,.3-.5,2.5,2.5,0,0,0,.1-1V44.8h-1.8v-1h1.8V42.5c0-.4.1-.8.1-1.2a6.5,6.5,0,0,1,.4-1.3,2.8,2.8,0,0,1,1.1-1.3,3.7,3.7,0,0,1,1.4-.7,3.9,3.9,0,0,1,1.5-.2,4.7,4.7,0,0,1,1.9.3,3,3,0,0,1,1,.9A1.6,1.6,0,0,1,221.1,39.9Z"/><path class="cls-3" d="M247.9,39l-1.2.3a1.4,1.4,0,0,0-.6.7,13.4,13.4,0,0,0-.5,1.7l-3,11.2h-1.5l-3.8-10.5-3.4,10.5h-1.5L229,41.4l-.5-1.6a1.7,1.7,0,0,0-.6-.6l-1-.2V38h6.3v1h-1.1c-.2.1-.3.3-.3.7a8.9,8.9,0,0,0,.2,1.1l2.2,7.3L237.6,38H239l3.6,10.2,1.8-6.8a8.9,8.9,0,0,0,.2-1.1c0-.6-.2-.9-.5-1a2.1,2.1,0,0,0-1.2-.3V38h5Z"/><path class="cls-3" d="M256.6,47.9H250a3.2,3.2,0,0,0,.1.8,3.5,3.5,0,0,0,.3,1.4,2,2,0,0,0,.8,1.2,2.9,2.9,0,0,0,1.7.5l1.4-.3a3.6,3.6,0,0,0,1.4-1.1l.8.5a4.3,4.3,0,0,1-4,2.1,7.9,7.9,0,0,1-2.3-.4,4.8,4.8,0,0,1-1.7-1,4.2,4.2,0,0,1-1.1-1.5,5.8,5.8,0,0,1-.4-1.8,4,4,0,0,1,.7-2.4,3.9,3.9,0,0,1,1.8-1.8,5.3,5.3,0,0,1,2.6-.7,4.9,4.9,0,0,1,2.5.7,3.8,3.8,0,0,1,1.5,1.6A5.4,5.4,0,0,1,256.6,47.9Zm-2.7-1c0-1.6-.6-2.5-1.9-2.5a1.7,1.7,0,0,0-1.4.7,3.5,3.5,0,0,0-.6,1.8Z"/><path class="cls-3" d="M263.8,52.6h-6.1v-1h.4c.4,0,.7,0,.9-.2a.8.8,0,0,0,.4-.4V40.9c0-.5-.1-.9-.3-1l-1.4-.2v-1l4.5-.9V50a3.1,3.1,0,0,0,.1,1c0,.2.1.3.3.4s.5.2.9.2h.3Z"/><path class="cls-3" d="M274.1,50a2.1,2.1,0,0,1-.6,1.6,2.4,2.4,0,0,1-1.5,1,7.2,7.2,0,0,1-2.2.4l-1.7-.2a5.3,5.3,0,0,1-1.5-.5l-.4.6h-.9V50.1h.9a2.7,2.7,0,0,0,1.1,1.3,4.4,4.4,0,0,0,2.5.6h.8a1.7,1.7,0,0,0,1-.3,1.2,1.2,0,0,0,.4-.8.9.9,0,0,0-.5-.8l-1.6-.5-2.5-.7a3.9,3.9,0,0,1-1.6-1,2.1,2.1,0,0,1-.6-1.6,2.3,2.3,0,0,1,1.2-2,5.3,5.3,0,0,1,3-.8l1.9.2,1.2.5.3-.6h.8V46h-.9a1,1,0,0,0-.5-.8l-1.1-.6-1.6-.2-1.5.2c-.5.1-.8.4-.8.8a.8.8,0,0,0,.2.4l.5.3,1.2.3,1.1.3a13.6,13.6,0,0,1,2.9,1.1A2.4,2.4,0,0,1,274.1,50Z"/><path class="cls-3" d="M287.2,52.6h-5.5v-1c.5,0,.9-.1,1-.3a.8.8,0,0,0,.3-.7V47a3.1,3.1,0,0,0-.1-1,1.3,1.3,0,0,0-.3-.8,1.2,1.2,0,0,0-.9-.3,2.3,2.3,0,0,0-1.1.3,1.8,1.8,0,0,0-.8.7,3.6,3.6,0,0,0-.4.9v4.1a1,1,0,0,0,.4.5,1.4,1.4,0,0,0,.9.2v1H275v-1h1.1a.7.7,0,0,0,.4-.5,2.5,2.5,0,0,0,.1-1V41c0-.5-.1-.9-.3-1s-.6-.3-1.3-.3v-1l4.4-.9V45a6.9,6.9,0,0,1,1.3-1.1,3.3,3.3,0,0,1,1.9-.5l1.1.2a3.1,3.1,0,0,1,1,.5,1.3,1.3,0,0,1,.6.7,3.9,3.9,0,0,1,.5,2V50a3.5,3.5,0,0,0,.2,1.3,1.7,1.7,0,0,0,1.2.3Z"/><path class="cls-3" d="M306.8,48.8a3.4,3.4,0,0,1-.6,2,4.2,4.2,0,0,1-1.6,1.1l-1.9.6h-9.1v-1a4.1,4.1,0,0,0,1.4-.2,1,1,0,0,0,.6-.5,3.1,3.1,0,0,0,.1-1V40.7c0-.6-.1-1.1-.4-1.3s-.8-.4-1.7-.4V38h7l2.3.3a5.2,5.2,0,0,1,2.3,1,3.1,3.1,0,0,1,1,2.4,2.5,2.5,0,0,1-.9,1.9,4.9,4.9,0,0,1-2.6,1.4,8.3,8.3,0,0,1,2.2.8,3.5,3.5,0,0,1,1.4,1.3A4.1,4.1,0,0,1,306.8,48.8Zm-3.7-7.2a2.3,2.3,0,0,0-.4-1.4,2.7,2.7,0,0,0-1-.8,3.4,3.4,0,0,0-1.8-.4h-1.1v5.3h.9a4,4,0,0,0,2.6-.8A2.6,2.6,0,0,0,303.1,41.6Zm.4,7a3.2,3.2,0,0,0-.8-2.3,2.7,2.7,0,0,0-2.2-.9h-1.7v3.8a4.5,4.5,0,0,0,.1,1.3,1.2,1.2,0,0,0,.5.7l1.2.2a2.9,2.9,0,0,0,2-.7A2.3,2.3,0,0,0,303.5,48.6Z"/><path class="cls-3" d="M313.9,52.6h-5.8v-1h.3c.4,0,.7,0,.9-.2s.3-.2.3-.4a3.1,3.1,0,0,0,.1-1V46.9a2.5,2.5,0,0,0-.1-1c0-.2-.2-.3-.4-.4h-1.1v-1l4.4-1V50c0,.6,0,1.1.2,1.3s.5.3,1.2.3Zm-1.2-13.4a1.4,1.4,0,0,1-.5,1.1,1.2,1.2,0,0,1-1.1.5,1.6,1.6,0,0,1-1.1-.5,1.4,1.4,0,0,1-.4-1.1,1.4,1.4,0,0,1,1.5-1.5,1.4,1.4,0,0,1,1.1.4A1.6,1.6,0,0,1,312.7,39.2Z"/><path class="cls-3" d="M325.9,48.2a4.3,4.3,0,0,1-.7,2.5,5.2,5.2,0,0,1-1.9,1.7,6,6,0,0,1-2.7.6,5.4,5.4,0,0,1-2.5-.6,4.5,4.5,0,0,1-2.8-4.2,4.2,4.2,0,0,1,1.6-3.5,6.2,6.2,0,0,1,3.8-1.3,6.1,6.1,0,0,1,2.8.7,4.2,4.2,0,0,1,1.8,1.7A4.8,4.8,0,0,1,325.9,48.2Zm-3-.1a6.4,6.4,0,0,0-.4-2.7,2,2,0,0,0-1.9-1,2.6,2.6,0,0,0-1.4.4,2.3,2.3,0,0,0-.7,1.3,11.8,11.8,0,0,0-.2,2.2,6.2,6.2,0,0,0,.4,2.6,2,2,0,0,0,2,1.1,1.7,1.7,0,0,0,1.4-.6,2.3,2.3,0,0,0,.7-1.4A10.9,10.9,0,0,0,322.9,48.1Z"/><path class="cls-3" d="M338.3,44.4a.8.8,0,0,1-.2.6.5.5,0,0,1-.5.3.9.9,0,0,1-.6-.3l-.2-.2h-.4l-.5.2a4.1,4.1,0,0,1,.5.9,1.8,1.8,0,0,1,.2,1.1,2.3,2.3,0,0,1-.4,1.4,2.2,2.2,0,0,1-1,.9,3.3,3.3,0,0,1-1.3.4l-1.7.3c-1.7.2-2.5.6-2.5,1.1s.1.3.4.4h4.2a4.2,4.2,0,0,1,1.5.4,3.8,3.8,0,0,1,1.3.9,2.9,2.9,0,0,1,.5,1.7,3.7,3.7,0,0,1-.5,1.6,4,4,0,0,1-1.7,1.3,7.5,7.5,0,0,1-3.3.6,11.9,11.9,0,0,1-3.2-.5,1.8,1.8,0,0,1-1.6-1.9,1.6,1.6,0,0,1,.3-.9,1,1,0,0,1,.9-.4h.8a3.1,3.1,0,0,0-.2.8,1.7,1.7,0,0,0,.8,1.3,5.5,5.5,0,0,0,2.5.5,6,6,0,0,0,2.6-.5,1.3,1.3,0,0,0,1-1.3,1.2,1.2,0,0,0-.4-.8l-1.2-.4H332a9,9,0,0,1-3.1-.4,1.7,1.7,0,0,1-1.1-1.7,1.7,1.7,0,0,1,.8-1.6,6.6,6.6,0,0,1,2.1-.8c-1.9-.4-2.9-1.3-2.9-2.7a2.8,2.8,0,0,1,.4-1.5,2.6,2.6,0,0,1,1.3-1.2,5.4,5.4,0,0,1,2.7-.6,4.9,4.9,0,0,1,3.2,1,2.3,2.3,0,0,1,1.8-.9l.8.2A.9.9,0,0,1,338.3,44.4Zm-4.4,2.2a2.9,2.9,0,0,0-.4-1.6,1.7,1.7,0,0,0-2.6,0,2.4,2.4,0,0,0-.4,1.5,2.9,2.9,0,0,0,.4,1.6,1.3,1.3,0,0,0,1.3.8,1.4,1.4,0,0,0,1.2-.6A2.2,2.2,0,0,0,333.9,46.6Z"/><path class="cls-3" d="M348.4,45.1a1.3,1.3,0,0,1-.3,1,1.2,1.2,0,0,1-.9.4,1.4,1.4,0,0,1-1.1-.6l-.4-.4h-.4a1.5,1.5,0,0,0-1.3.9,4.1,4.1,0,0,0-.4,1.9V50c0,.6,0,1.1.2,1.3s.6.3,1.2.3h.6v1h-6.7v-1h.6a1.4,1.4,0,0,0,1.1-.3,3.9,3.9,0,0,0,.2-1.3V46.9a2.2,2.2,0,0,0-.2-1c-.1-.2-.2-.4-.5-.4h-1.2v-1l4.2-1a18.5,18.5,0,0,1,.3,2.4l.8-1.2,1.1-.8a2.8,2.8,0,0,1,1.2-.4,2,2,0,0,1,1.4.5A1.6,1.6,0,0,1,348.4,45.1Z"/><path class="cls-3" d="M360.3,50.3a2.9,2.9,0,0,1-.3,1.4l-.9.9a2.7,2.7,0,0,1-1.3.2,2.4,2.4,0,0,1-1.5-.4c-.4-.3-.7-.6-.7-1a5.5,5.5,0,0,1-3.6,1.4,2.9,2.9,0,0,1-1.9-.5,1.9,1.9,0,0,1-.8-1.5,3.3,3.3,0,0,1,.4-1.4,4.3,4.3,0,0,1,1.2-1.1,7.5,7.5,0,0,1,1.8-.8l2.7-.8v-.6a2.1,2.1,0,0,0-.4-1.2,1.6,1.6,0,0,0-1.3-.5,1.7,1.7,0,0,0-1.2.4,1.6,1.6,0,0,0-.5,1,3.4,3.4,0,0,1-.3.8,1.3,1.3,0,0,1-1.8.1,1,1,0,0,1-.3-.8,2,2,0,0,1,1.1-1.7,5.7,5.7,0,0,1,3.3-.8,5.3,5.3,0,0,1,3.3.8,3.3,3.3,0,0,1,.8,2.2v3.4a2.2,2.2,0,0,0,.1.9,4.3,4.3,0,0,0,.1.5h.5a.5.5,0,0,0,.5-.3,1.4,1.4,0,0,0,.2-.7Zm-4.9.1V47.8a5.6,5.6,0,0,0-2.6,1.2,1.7,1.7,0,0,0-.6,1.2,1,1,0,0,0,.3.8,1.2,1.2,0,0,0,.9.3l1-.2Z"/><path class="cls-3" d="M372.7,48a5.4,5.4,0,0,1-.6,2.5,4.2,4.2,0,0,1-1.7,1.8,5.2,5.2,0,0,1-2.5.7,4,4,0,0,1-2.9-1.2v3.4a2.2,2.2,0,0,0,.1.9.5.5,0,0,0,.3.5h1.5v1h-6.2v-1h1c.2-.1.4-.2.4-.4a2.5,2.5,0,0,0,.1-1V46.8a2.2,2.2,0,0,0-.1-.9c0-.2-.2-.3-.4-.4h-1v-1l4.1-1a4.6,4.6,0,0,1,.2,1.4,4.1,4.1,0,0,1,1.4-1,5.3,5.3,0,0,1,1.8-.4,5.8,5.8,0,0,1,1.9.4,3.1,3.1,0,0,1,1.4,1.1,3.8,3.8,0,0,1,.9,1.5A4.5,4.5,0,0,1,372.7,48Zm-3-.1c0-2.2-.7-3.3-2.3-3.3a2.7,2.7,0,0,0-1.4.5l-1,1v4.3a3.6,3.6,0,0,0,1.1,1,3.3,3.3,0,0,0,1.4.4C369,51.8,369.7,50.5,369.7,47.9Z"/><path class="cls-3" d="M386,52.6h-5.5v-1a1.3,1.3,0,0,0,1-.3.8.8,0,0,0,.3-.7V47a3.1,3.1,0,0,0-.1-1,1.1,1.1,0,0,0-1.3-1.1l-1,.3a1.8,1.8,0,0,0-.8.7,3.6,3.6,0,0,0-.4.9v4.1a1,1,0,0,0,.4.5,1.4,1.4,0,0,0,.9.2v1h-5.7v-1h1.1a.7.7,0,0,0,.4-.5,2.5,2.5,0,0,0,.1-1V41c0-.5-.1-.9-.3-1s-.6-.3-1.3-.3v-1l4.4-.9V45a6.9,6.9,0,0,1,1.3-1.1,3.3,3.3,0,0,1,1.9-.5l1.1.2,1,.5a1.3,1.3,0,0,1,.6.7,3.9,3.9,0,0,1,.5,2V50a3.5,3.5,0,0,0,.2,1.3,1.7,1.7,0,0,0,1.2.3Z"/><path class="cls-3" d="M397.4,44.8l-.7.2c-.2.1-.3.3-.5.6l-.7,1.4-3.1,6.5a32.1,32.1,0,0,1-1.5,2.9,3.6,3.6,0,0,1-.8,1.2,2.8,2.8,0,0,1-1.3.4,1.1,1.1,0,0,1-.8-.3.9.9,0,0,1-.4-.8,1.1,1.1,0,0,1,.5-.9l1.1-.5a2.8,2.8,0,0,0,1.5-1.1l.9-1.6-4.1-7.2a2.2,2.2,0,0,0-.6-.7h-.6v-1h5.2v1h-.3c-.5,0-.8.1-.8.3a2,2,0,0,0,.3.8l2.3,4,1.7-3.4a4.3,4.3,0,0,0,.3-1,.5.5,0,0,0-.3-.5l-.7-.2v-1h3.4Z"/></g></g><g class="cls-4"><path class="cls-3" d="M64.6-1.8H40.5L30,54.8l-2.8,5.8,1.2,2.8H64.6Z"/><path class="cls-5" d="M6.9-1.8,5.8,63.4H28.4V61.8a9,9,0,0,1,8.4-9h.4l5.9-.2c4.7-.3,5-5.5,3.7-7.3a3.4,3.4,0,0,1-.7-3.8c.3-1,1.4-1.2,1.5-2.1s-1.3-2.4-1.3-2.4c2.9-1.1,1.9-2.8,1.9-2.8s-2.8-4.6.5-4.7,4-2.3,3.3-3.4a55.6,55.6,0,0,0-5-6.7c-2.8-3.3-1.9-4.2-1.9-4.2,1.6-2.2,1.2-3.8,1.2-3.8C46,7.3,41.6-.1,40.6-1.8Z"/><path class="cls-3" d="M15.4,63.4s.3-9.7,3.7-12.8,12-.3,14.3-2.4.6-5.3.4-6.3.2-1.9,1.6-3.3-1.3-3.5-.8-3.6,3-2,2.2-2.6-2.1-3-1.2-3.5S39,27.5,39,26.1s-2-3.1-3.5-5-2.9-3.4-1.3-7.9S31.1,0,30.1-1.9H-.5V63.4Z"/></g></svg>